<svg xmlns="http://www.w3.org/2000/svg" xmlns:xlink="http://www.w3.org/1999/xlink" version="1.1" width="256" height="256" viewBox="0 0 256 256" xml:space="preserve">

<defs>
</defs>
<g style="stroke: none; stroke-width: 0; stroke-dasharray: none; stroke-linecap: butt; stroke-linejoin: miter; stroke-miterlimit: 10; fill: none; fill-rule: nonzero; opacity: 1;" transform="translate(1.4065934065934016 1.4065934065934016) scale(2.81 2.81)" >
	<path d="M 82.39 67.652 c -0.047 -0.142 -0.129 -0.265 -0.229 -0.371 c -0.006 -0.007 -0.008 -0.017 -0.015 -0.024 L 58.225 43.335 l 6.014 -6.014 c 7.004 2.572 14.85 0.864 20.156 -4.442 c 5.15 -5.151 6.92 -12.659 4.618 -19.594 c -0.109 -0.329 -0.381 -0.578 -0.719 -0.658 c -0.333 -0.079 -0.692 0.021 -0.937 0.266 l -8.587 8.587 c -2.78 2.778 -7.3 2.777 -10.078 0 c -2.778 -2.778 -2.778 -7.299 0 -10.078 l 8.587 -8.587 c 0.245 -0.245 0.346 -0.6 0.266 -0.937 c -0.079 -0.337 -0.329 -0.609 -0.658 -0.719 c -6.937 -2.301 -14.444 -0.53 -19.594 4.619 c -5.306 5.306 -7.015 13.151 -4.443 20.156 l -6.013 6.014 L 28.58 13.69 L 15.711 0.822 c -0.391 -0.391 -1.023 -0.391 -1.414 0 L 0.299 14.82 c -0.391 0.391 -0.391 1.023 0 1.414 l 12.869 12.869 l 18.259 18.259 l -5.317 5.317 c -7.005 -2.571 -14.85 -0.863 -20.157 4.443 c -5.15 5.151 -6.919 12.658 -4.619 19.594 c 0.109 0.329 0.381 0.579 0.719 0.658 c 0.336 0.081 0.692 -0.021 0.937 -0.266 l 8.587 -8.587 c 2.779 -2.779 7.3 -2.778 10.078 -0.001 c 2.778 2.779 2.778 7.299 0 10.078 l -8.587 8.588 c -0.245 0.245 -0.346 0.6 -0.266 0.937 c 0.08 0.338 0.329 0.609 0.658 0.719 c 2.01 0.667 4.067 0.991 6.102 0.991 c 4.988 0 9.836 -1.953 13.493 -5.611 c 5.306 -5.306 7.015 -13.151 4.442 -20.155 l 5.317 -5.318 L 66.735 82.67 c 0.007 0.007 0.017 0.008 0.024 0.015 c 0.105 0.1 0.228 0.182 0.371 0.229 l 20.855 6.857 c 0.103 0.033 0.208 0.05 0.312 0.05 c 0.261 0 0.517 -0.103 0.707 -0.293 c 0.267 -0.267 0.36 -0.661 0.243 -1.019 L 82.39 67.652 z M 15.289 28.395 l 12.584 -12.584 l 52.153 52.154 L 67.443 80.548 L 15.289 28.395 z M 54.726 26.889 c 0.284 -0.284 0.371 -0.711 0.22 -1.084 c -2.609 -6.412 -1.132 -13.718 3.762 -18.612 c 4.218 -4.218 10.207 -5.904 15.951 -4.583 L 67.28 9.989 c -3.558 3.558 -3.558 9.347 0 12.905 c 3.559 3.56 9.348 3.558 12.905 0 l 7.379 -7.379 c 1.321 5.745 -0.364 11.732 -4.582 15.951 c -4.894 4.893 -12.199 6.372 -18.613 3.763 c -0.372 -0.152 -0.799 -0.065 -1.084 0.219 l -6.474 6.474 l -8.559 -8.559 L 54.726 26.889 z M 15.004 2.942 l 11.455 11.455 L 13.875 26.981 L 2.42 15.527 L 15.004 2.942 z M 41.399 57.334 l -5.778 5.778 c -0.285 0.284 -0.371 0.711 -0.219 1.084 c 2.609 6.412 1.132 13.718 -3.763 18.612 c -4.217 4.217 -10.203 5.903 -15.951 4.583 l 7.379 -7.38 c 3.558 -3.558 3.558 -9.347 0 -12.905 c -3.557 -3.557 -9.346 -3.557 -12.905 0.001 l -7.379 7.379 C 1.463 68.74 3.148 62.752 7.367 58.534 c 4.894 -4.895 12.2 -6.374 18.613 -3.762 c 0.372 0.148 0.799 0.064 1.084 -0.22 l 5.778 -5.778 L 41.399 57.334 z M 69.299 81.52 l 11.699 -11.699 l 5.731 17.431 L 69.299 81.52 z" style="stroke: none; stroke-width: 1; stroke-dasharray: none; stroke-linecap: butt; stroke-linejoin: miter; stroke-miterlimit: 10; fill: rgb(255,255,255); fill-rule: nonzero; opacity: 1;" transform=" matrix(1 0 0 1 0 0) " stroke-linecap="round" />
	<path d="M 62.355 61.464 l -30.17 -30.17 c -0.391 -0.391 -1.023 -0.391 -1.414 0 c -0.391 0.391 -0.391 1.023 0 1.414 l 30.17 30.17 c 0.195 0.195 0.451 0.293 0.707 0.293 c 0.256 0 0.512 -0.098 0.707 -0.293 C 62.746 62.487 62.746 61.854 62.355 61.464 z" style="stroke: none; stroke-width: 1; stroke-dasharray: none; stroke-linecap: butt; stroke-linejoin: miter; stroke-miterlimit: 10; fill: rgb(255,255,255); fill-rule: nonzero; opacity: 1;" transform=" matrix(1 0 0 1 0 0) " stroke-linecap="round" />
</g>
</svg>